<svg width="611" height="283" viewBox="0 0 611 283" fill="none" xmlns="http://www.w3.org/2000/svg">
<g opacity="0.5">
<path d="M165.387 141.628V215.498" stroke="#FFD150" stroke-width="3" stroke-miterlimit="3" stroke-linecap="round" stroke-linejoin="round"/>
<path d="M223.27 87.5081V118.524" stroke="#FFD150" stroke-width="3" stroke-miterlimit="3" stroke-linecap="round" stroke-linejoin="round"/>
<path d="M388.811 88.2224V115.663" stroke="#FFD150" stroke-width="3" stroke-miterlimit="3" stroke-linecap="round" stroke-linejoin="round"/>
<path d="M481.676 10.3486V68.5184" stroke="#FFD150" stroke-width="3" stroke-miterlimit="3" stroke-linecap="round" stroke-linejoin="round"/>
<path d="M102.733 165.555V241.956" stroke="#FFD150" stroke-width="3" stroke-miterlimit="3" stroke-linecap="round" stroke-linejoin="round"/>
<path d="M568.425 116.35V143.793" stroke="#FFD150" stroke-width="3" stroke-miterlimit="3" stroke-linecap="round" stroke-linejoin="round"/>
</g>
<path d="M601.851 153.998L563.824 147.89C551.896 146.033 545.932 150.527 545.932 161.372V222.707C545.932 232.497 541.137 237.139 531.549 236.632L522.147 235.05C510.501 233.236 504.561 227.096 504.326 216.63V91.553C504.326 81.4253 499.205 75.1791 488.961 72.8168L480.333 71.423C468.451 69.524 462.511 74.0194 462.511 84.9055V165.168C462.511 174.957 457.693 179.578 448.058 179.029L429.324 176.054C417.677 174.196 411.737 168.036 411.502 157.571V136.871C411.502 126.743 406.358 120.518 396.067 118.198L349.832 110.73C337.951 108.873 332.011 113.367 332.011 124.211M20 272.649L60.343 266.161C70.5628 264.343 76.2459 259.121 77.3923 250.495V189.729C77.3923 179.77 82.3499 173.546 92.2666 171.056L110.719 168.081C122.272 166.265 128.236 170.423 128.61 180.55V209.414C128.891 218.571 133.708 222.94 143.064 222.518L193.51 214.384C204.37 212.313 209.912 206.227 210.138 196.122V140.419C210.138 130.461 215.096 124.195 225.014 121.62L241.958 118.898C251.476 118.45 256.236 123.069 256.236 132.76V144.915C256.517 154.071 261.334 158.439 270.689 158.017L321.136 149.915" stroke="#FFD150" stroke-width="5" stroke-miterlimit="3" stroke-linecap="round" stroke-linejoin="round"/>
<path d="M173.706 140.076C173.706 142.211 172.894 144.168 171.225 145.964C169.555 147.76 167.541 148.839 165.168 149.216C162.795 149.593 160.822 149.149 159.203 147.924C157.59 146.702 156.786 145.054 156.786 142.925C156.786 140.789 157.598 138.831 159.267 137.036C160.937 135.241 162.953 134.16 165.325 133.783C167.698 133.406 169.67 133.851 171.289 135.076C172.902 136.298 173.706 137.947 173.706 140.076Z" fill="#F6F8FB" stroke="#FFD150"/>
<path fill-rule="evenodd" clip-rule="evenodd" d="M174.206 140.076C174.206 142.353 173.335 144.428 171.591 146.304C169.846 148.18 167.732 149.315 165.247 149.71C162.762 150.105 160.645 149.643 158.901 148.322C157.157 147.002 156.286 145.203 156.286 142.925C156.286 140.647 157.157 138.571 158.901 136.696C160.645 134.821 162.762 133.684 165.247 133.289C167.732 132.894 169.846 133.357 171.591 134.678C173.335 135.998 174.206 137.798 174.206 140.076Z" fill="#F6F8FB" stroke="#FFD150" stroke-width="3" stroke-miterlimit="3" stroke-linecap="round" stroke-linejoin="round"/>
<path d="M96.6891 247.049L96.6889 247.049C95.0755 245.827 94.2715 244.179 94.2715 242.05C94.2715 239.914 95.0836 237.956 96.7532 236.161L96.7533 236.161C98.4216 234.366 100.437 233.285 102.81 232.908C105.182 232.531 107.156 232.976 108.775 234.201C110.388 235.423 111.192 237.071 111.192 239.201C111.192 241.336 110.38 243.293 108.71 245.089C107.041 246.885 105.026 247.964 102.653 248.341C100.28 248.718 98.3065 248.274 96.6891 247.049Z" fill="#F6F8FB" stroke="#FFD150"/>
<path fill-rule="evenodd" clip-rule="evenodd" d="M111.692 239.201C111.692 241.478 110.821 243.553 109.077 245.429C107.332 247.305 105.216 248.44 102.731 248.835C100.246 249.23 98.1299 248.768 96.3871 247.447C94.6429 246.127 93.7715 244.328 93.7715 242.05C93.7715 239.772 94.6429 237.696 96.3871 235.821C98.1299 233.946 100.246 232.809 102.731 232.414C105.216 232.019 107.332 232.482 109.077 233.803C110.821 235.123 111.692 236.922 111.692 239.201Z" fill="#F6F8FB" stroke="#FFD150" stroke-width="3" stroke-miterlimit="3" stroke-linecap="round" stroke-linejoin="round"/>
<path d="M568.825 123.835L568.825 123.835C571.198 124.212 573.171 123.768 574.79 122.541L574.79 122.541C576.402 121.32 577.206 119.673 577.206 117.543C577.206 115.408 576.394 113.45 574.726 111.654L568.825 123.835ZM568.825 123.835C566.451 123.458 564.437 122.376 562.768 120.581C561.099 118.785 560.286 116.829 560.286 114.693C560.286 112.565 561.091 110.915 562.703 109.695L562.703 109.695C564.322 108.469 566.294 108.024 568.668 108.401L568.669 108.401M568.825 123.835L568.669 108.401M568.669 108.401C571.041 108.777 573.056 109.86 574.726 111.653L568.669 108.401Z" fill="#F6F8FB" stroke="#FFD150"/>
<path fill-rule="evenodd" clip-rule="evenodd" d="M559.786 114.693C559.786 116.972 560.659 119.046 562.401 120.922C564.146 122.797 566.26 123.933 568.747 124.328C571.232 124.723 573.348 124.261 575.092 122.94C576.835 121.619 577.706 119.822 577.706 117.543C577.706 115.265 576.835 113.189 575.092 111.313C573.348 109.439 571.232 108.301 568.747 107.908C566.26 107.513 564.146 107.976 562.401 109.296C560.659 110.615 559.786 112.416 559.786 114.693Z" fill="#F6F8FB" stroke="#FFD150" stroke-width="3" stroke-miterlimit="3" stroke-linecap="round" stroke-linejoin="round"/>
<path d="M11.0395 264.937L11.0395 264.937C8.66547 265.314 6.65006 266.395 4.98184 268.19C3.31338 269.985 2.5 271.943 2.5 274.079C2.5 276.208 3.30527 277.856 4.91757 279.078C6.53502 280.303 8.50818 280.747 10.8826 280.37C13.2552 279.993 15.2694 278.912 16.9405 277.117C18.6088 275.321 19.4207 273.365 19.4207 271.23C19.4207 269.1 18.6166 267.451 17.0046 266.23L11.0395 264.937ZM11.0395 264.937C13.412 264.559 15.3839 265.004 17.0045 266.23L11.0395 264.937Z" fill="#F6F8FB" stroke="#FFD150"/>
<path fill-rule="evenodd" clip-rule="evenodd" d="M19.9207 271.23C19.9207 273.507 19.0493 275.582 17.3065 277.458C15.5609 279.333 13.4462 280.469 10.9611 280.864C8.47453 281.259 6.35844 280.796 4.61563 279.476C2.87281 278.156 2 276.357 2 274.079C2 271.801 2.87281 269.724 4.61563 267.849C6.35844 265.975 8.47453 264.838 10.9611 264.443C13.4462 264.048 15.5609 264.511 17.3065 265.832C19.0493 267.152 19.9207 268.951 19.9207 271.23Z" fill="#F6F8FB" stroke="#FFD150" stroke-width="3" stroke-miterlimit="3" stroke-linecap="round" stroke-linejoin="round"/>
<path d="M223.279 79.6641L223.279 79.6641C220.905 80.0412 218.889 81.1228 217.221 82.9174C215.553 84.7123 214.739 86.6705 214.739 88.8055C214.739 90.9351 215.545 92.5836 217.157 93.8051C218.774 95.0305 220.747 95.4744 223.122 95.0973C225.494 94.7202 227.509 93.6398 229.18 91.8438C230.848 90.049 231.66 88.0922 231.66 85.9558C231.66 83.8273 230.856 82.179 229.244 80.9576L223.279 79.6641ZM223.279 79.6641C225.651 79.287 227.623 79.7318 229.244 80.9576L223.279 79.6641Z" fill="#F6F8FB" stroke="#FFD150"/>
<path fill-rule="evenodd" clip-rule="evenodd" d="M232.16 85.9558C232.16 88.2346 231.289 90.3095 229.546 92.1844C227.8 94.0605 225.685 95.1961 223.2 95.5911C220.714 95.9861 218.598 95.524 216.855 94.2036C215.112 92.8832 214.239 91.0842 214.239 88.8055C214.239 86.528 215.112 84.4519 216.855 82.577C218.598 80.7021 220.714 79.5653 223.2 79.1703C225.685 78.7753 227.8 79.2386 229.546 80.559C231.289 81.8794 232.16 83.6783 232.16 85.9558Z" fill="#F6F8FB" stroke="#FFD150" stroke-width="3" stroke-miterlimit="3" stroke-linecap="round" stroke-linejoin="round"/>
<path d="M388.79 97.3126L388.79 97.3126C391.163 97.6898 393.136 97.2458 394.754 96.0204L394.754 96.0203C396.367 94.7989 397.171 93.1507 397.171 91.0208C397.171 88.8857 396.359 86.9276 394.69 85.1329L394.69 85.1328C393.021 83.3392 391.006 82.2565 388.633 81.8794C386.259 81.5023 384.287 81.9473 382.668 83.1729L388.79 97.3126ZM388.79 97.3126C386.416 96.9355 384.402 95.8552 382.733 94.0593M388.79 97.3126L382.733 94.0593M382.733 94.0593C381.064 92.2643 380.251 90.3074 380.251 88.1711M382.733 94.0593L380.251 88.1711M380.251 88.1711C380.251 86.0429 381.056 84.3945 382.668 83.173L380.251 88.1711Z" fill="#F6F8FB" stroke="#FFD150"/>
<path fill-rule="evenodd" clip-rule="evenodd" d="M379.751 88.1711C379.751 90.4499 380.624 92.5248 382.366 94.3997C384.111 96.2759 386.225 97.4114 388.712 97.8064C391.197 98.2014 393.313 97.7393 395.056 96.4189C396.8 95.0985 397.671 93.2996 397.671 91.0208C397.671 88.7434 396.8 86.6672 395.056 84.7923C393.313 82.9187 391.197 81.7806 388.712 81.3856C386.225 80.9906 384.111 81.454 382.366 82.7744C380.624 84.0948 379.751 85.8937 379.751 88.1711Z" fill="#F6F8FB" stroke="#FFD150" stroke-width="3" stroke-miterlimit="3" stroke-linecap="round" stroke-linejoin="round"/>
<path d="M475.839 14.81C474.17 13.0151 473.357 11.0569 473.357 8.92192C473.357 6.79356 474.162 5.14393 475.774 3.92249C477.393 2.698 479.365 2.25305 481.739 2.63015C484.112 3.00725 486.127 4.08882 487.797 5.88362C489.465 7.67835 490.277 9.63643 490.277 11.7716C490.277 13.9003 489.473 15.5497 487.861 16.7697L487.861 16.7699C486.242 17.9966 484.269 18.4405 481.896 18.0634L481.896 18.0633C479.522 17.6862 477.508 16.6059 475.839 14.81ZM475.839 14.81L475.472 15.1505M475.839 14.81L475.472 15.1505M475.472 15.1505C477.217 17.0266 479.331 18.1622 481.818 18.5572M475.472 15.1505C473.73 13.2756 472.857 11.1994 472.857 8.92192C472.857 6.64445 473.73 4.84424 475.472 3.52384C477.217 2.20471 479.331 1.74137 481.818 2.13635C484.303 2.53133 486.419 3.66816 488.163 5.54305L481.818 18.5572M481.818 18.5572C484.303 18.9521 486.419 18.4901 488.163 17.1684L481.818 18.5572Z" fill="#F6F8FB" stroke="#FFD150"/>
<path fill-rule="evenodd" clip-rule="evenodd" d="M472.857 8.92192C472.857 11.1994 473.73 13.2756 475.472 15.1505C477.217 17.0266 479.331 18.1622 481.818 18.5572C484.303 18.9521 486.419 18.4901 488.163 17.1684C489.906 15.8493 490.777 14.0491 490.777 11.7716C490.777 9.49412 489.906 7.41794 488.163 5.54305C486.419 3.66816 484.303 2.53133 481.818 2.13635C479.331 1.74137 477.217 2.20471 475.472 3.52384C473.73 4.84424 472.857 6.64445 472.857 8.92192Z" fill="#F6F8FB" stroke="#FFD150" stroke-width="3" stroke-miterlimit="3" stroke-linecap="round" stroke-linejoin="round"/>
<path d="M600.119 158.965L600.119 158.965C602.492 159.342 604.465 158.898 606.084 157.672L606.084 157.672C607.696 156.45 608.5 154.803 608.5 152.673C608.5 150.538 607.688 148.58 606.02 146.784L600.119 158.965ZM600.119 158.965C597.745 158.588 595.731 157.508 594.061 155.712M600.119 158.965L594.061 155.712M594.061 155.712C592.393 153.917 591.579 151.96 591.579 149.824M594.061 155.712L591.579 149.824M591.579 149.824C591.579 147.695 592.385 146.046 593.997 144.824C595.616 143.6 597.588 143.155 599.962 143.532M591.579 149.824L606.019 146.784C604.35 144.991 602.334 143.909 599.962 143.532M599.962 143.532L600.04 143.038L599.962 143.532Z" fill="#F6F8FB" stroke="#FFD150"/>
<path fill-rule="evenodd" clip-rule="evenodd" d="M591.079 149.824C591.079 152.102 591.952 154.177 593.695 156.052C595.439 157.928 597.554 159.064 600.04 159.459C602.525 159.854 604.642 159.392 606.386 158.07C608.129 156.75 609 154.952 609 152.673C609 150.396 608.129 148.32 606.386 146.444C604.642 144.57 602.525 143.433 600.04 143.038C597.554 142.643 595.439 143.107 593.695 144.426C591.952 145.746 591.079 147.546 591.079 149.824Z" fill="#F6F8FB" stroke="#FFD150" stroke-width="3" stroke-miterlimit="3" stroke-linecap="round" stroke-linejoin="round"/>
</svg>
