<svg width="28" height="28" viewBox="0 0 28 28" fill="none" xmlns="http://www.w3.org/2000/svg">
<rect x="2" width="24" height="24" rx="12" fill="url(#paint0_linear_2754_8033)"/>
<g opacity="0.25" filter="url(#filter0_f_2754_8033)">
<rect x="5.61523" y="12" width="16.3493" height="10.2183" rx="5.10917" fill="url(#paint1_linear_2754_8033)"/>
</g>
<rect x="5.12012" y="3.12012" width="17.7118" height="17.7118" rx="8.8559" fill="url(#paint2_linear_2754_8033)"/>
<g clip-path="url(#clip0_2754_8033)" filter="url(#filter1_i_2754_8033)">
<g filter="url(#filter2_i_2754_8033)">
<path d="M17.4151 16.9969C18.141 16.7164 18.7149 16.1425 18.9954 15.4166C19.1281 15.0727 19.2211 14.6804 19.2463 14.1065C19.2523 13.9721 19.2569 13.8592 19.2612 13.746V9.9117C19.2582 9.83171 19.2549 9.74839 19.2506 9.65479C19.2254 9.0809 19.1324 8.68658 18.9997 8.34471C18.8626 7.98192 18.6515 7.65697 18.3753 7.38712C18.1051 7.11262 17.7782 6.89953 17.4194 6.76477C17.0755 6.632 16.6832 6.53906 16.1093 6.51384C15.5311 6.48629 15.3476 6.47998 13.8815 6.47998C12.4154 6.47998 12.2315 6.48629 11.6556 6.51151C11.0817 6.53674 10.6874 6.62968 10.3455 6.76244C9.98274 6.89953 9.65779 7.11063 9.3876 7.38712C9.11344 7.6573 8.90035 7.98424 8.76526 8.34271C8.63249 8.68658 8.53955 9.07891 8.51432 9.6528C8.48677 10.231 8.48047 10.4146 8.48047 11.881C8.48047 13.3474 8.48677 13.5309 8.512 14.1068C8.53723 14.6807 8.63016 15.0754 8.76326 15.4169C8.90035 15.7797 9.11344 16.1047 9.3876 16.3748C9.65779 16.649 9.98473 16.8624 10.3435 16.9972C10.6874 17.13 11.0797 17.2229 11.6536 17.2481C12.2295 17.2737 12.4131 17.28 13.8795 17.28C15.3459 17.28 15.5291 17.2737 16.1053 17.2481C16.6792 17.2229 17.0735 17.13 17.4154 16.9972L17.4151 16.9969ZM13.8835 16.3091C12.4423 16.3091 12.2693 16.3028 11.7017 16.2776C11.1743 16.2543 10.8895 16.1657 10.6997 16.092C10.4657 16.0054 10.2526 15.8683 10.0793 15.6891C9.90009 15.5138 9.76267 15.3031 9.67638 15.0687C9.60269 14.8789 9.51407 14.5918 9.49083 14.0667C9.46561 13.4971 9.4593 13.3262 9.4593 11.885C9.4593 10.4438 9.46561 10.2708 9.49083 9.70358C9.51407 9.17616 9.60269 8.89138 9.67638 8.70152C9.76301 8.46718 9.90009 8.25409 10.0816 8.08116C10.2566 7.90192 10.4677 7.76484 10.7017 7.67821C10.8915 7.60452 11.1786 7.5159 11.7037 7.49267C12.2733 7.46744 12.4443 7.46114 13.8851 7.46114C15.326 7.46114 15.4992 7.46744 16.0668 7.49267C16.5942 7.5159 16.879 7.60452 17.0689 7.67821C17.3029 7.76484 17.516 7.90192 17.6889 8.08116C17.8682 8.25641 18.0056 8.46718 18.0919 8.70152C18.1656 8.89138 18.2542 9.17816 18.2774 9.70358C18.3026 10.2732 18.3089 10.4441 18.3089 11.885C18.3089 13.3258 18.3026 13.4948 18.2774 14.0643C18.2542 14.5918 18.1656 14.8766 18.0919 15.0664C17.9103 15.5371 17.5369 15.9105 17.0666 16.0917C16.8767 16.1654 16.5899 16.254 16.0645 16.2773C15.4949 16.3025 15.324 16.3088 13.8831 16.3088L13.8835 16.3091Z" fill="white"/>
<path d="M13.8819 9.10596C12.3501 9.10596 11.1074 10.3487 11.1074 11.8805C11.1074 13.4123 12.3501 14.655 13.8819 14.655C15.4137 14.655 16.6561 13.4123 16.6561 11.8805C16.6561 10.3487 15.4134 9.10596 13.8819 9.10596ZM13.8819 13.6798C12.8882 13.6798 12.0823 12.8739 12.0823 11.8801C12.0823 10.8864 12.8882 10.0805 13.8819 10.0805C14.8757 10.0805 15.6816 10.8864 15.6816 11.8801C15.6816 12.8739 14.8757 13.6798 13.8819 13.6798Z" fill="white"/>
<path d="M17.4127 8.9967C17.4127 8.63889 17.1226 8.34912 16.7648 8.34912C16.407 8.34912 16.1172 8.63922 16.1172 8.9967C16.1172 9.35417 16.4073 9.64427 16.7648 9.64427C17.1222 9.64427 17.4127 9.3545 17.4127 8.9967Z" fill="white"/>
</g>
</g>
<defs>
<filter id="filter0_f_2754_8033" x="0.155234" y="6.54" width="27.2696" height="21.1383" filterUnits="userSpaceOnUse" color-interpolation-filters="sRGB">
<feFlood flood-opacity="0" result="BackgroundImageFix"/>
<feBlend mode="normal" in="SourceGraphic" in2="BackgroundImageFix" result="shape"/>
<feGaussianBlur stdDeviation="2.73" result="effect1_foregroundBlur_2754_8033"/>
</filter>
<filter id="filter1_i_2754_8033" x="8.48047" y="6.47998" width="10.7998" height="11.2998" filterUnits="userSpaceOnUse" color-interpolation-filters="sRGB">
<feFlood flood-opacity="0" result="BackgroundImageFix"/>
<feBlend mode="normal" in="SourceGraphic" in2="BackgroundImageFix" result="shape"/>
<feColorMatrix in="SourceAlpha" type="matrix" values="0 0 0 0 0 0 0 0 0 0 0 0 0 0 0 0 0 0 127 0" result="hardAlpha"/>
<feOffset dy="0.5"/>
<feGaussianBlur stdDeviation="1.25"/>
<feComposite in2="hardAlpha" operator="arithmetic" k2="-1" k3="1"/>
<feColorMatrix type="matrix" values="0 0 0 0 0 0 0 0 0 0 0 0 0 0 0 0 0 0 0.2 0"/>
<feBlend mode="normal" in2="shape" result="effect1_innerShadow_2754_8033"/>
</filter>
<filter id="filter2_i_2754_8033" x="8.48047" y="6.47998" width="10.7803" height="11.2998" filterUnits="userSpaceOnUse" color-interpolation-filters="sRGB">
<feFlood flood-opacity="0" result="BackgroundImageFix"/>
<feBlend mode="normal" in="SourceGraphic" in2="BackgroundImageFix" result="shape"/>
<feColorMatrix in="SourceAlpha" type="matrix" values="0 0 0 0 0 0 0 0 0 0 0 0 0 0 0 0 0 0 127 0" result="hardAlpha"/>
<feOffset dy="0.5"/>
<feGaussianBlur stdDeviation="1.25"/>
<feComposite in2="hardAlpha" operator="arithmetic" k2="-1" k3="1"/>
<feColorMatrix type="matrix" values="0 0 0 0 0 0 0 0 0 0 0 0 0 0 0 0 0 0 0.1 0"/>
<feBlend mode="normal" in2="shape" result="effect1_innerShadow_2754_8033"/>
</filter>
<linearGradient id="paint0_linear_2754_8033" x1="4.01747" y1="1.57205" x2="21.8341" y2="24" gradientUnits="userSpaceOnUse">
<stop stop-color="#FFD150"/>
<stop offset="1" stop-color="#DBDDE8"/>
</linearGradient>
<linearGradient id="paint1_linear_2754_8033" x1="13.7899" y1="11.6816" x2="13.7899" y2="22.7538" gradientUnits="userSpaceOnUse">
<stop stop-color="#FCA759"/>
<stop offset="0.19" stop-color="#E82D56"/>
<stop offset="0.74" stop-color="#A22DB4"/>
<stop offset="1" stop-color="#643DCE"/>
</linearGradient>
<linearGradient id="paint2_linear_2754_8033" x1="13.976" y1="2.56824" x2="13.976" y2="21.7601" gradientUnits="userSpaceOnUse">
<stop stop-color="#FCA759"/>
<stop offset="0.19" stop-color="#E82D56"/>
<stop offset="0.74" stop-color="#A22DB4"/>
<stop offset="1" stop-color="#643DCE"/>
</linearGradient>
<clipPath id="clip0_2754_8033">
<rect width="10.8" height="10.8" fill="white" transform="translate(8.48047 6.47998)"/>
</clipPath>
</defs>
</svg>
